<svg xmlns="http://www.w3.org/2000/svg" viewBox="0 0 1200 800">
  <defs>
    <linearGradient id="g1" x1="0" x2="1">
      <stop offset="0" stop-color="#7c3aed" />
      <stop offset="1" stop-color="#06b6d4" />
    </linearGradient>
    <filter id="f1" x="-20%" y="-20%" width="140%" height="140%">
      <feGaussianBlur stdDeviation="30" />
    </filter>
  </defs>

  <rect width="1200" height="800" fill="#0f172a" />

  <g filter="url(#f1)" opacity="0.95">
    <path d="M300 100 C420 20, 660 20, 780 100 C900 180, 900 360, 780 440 C660 520, 420 520, 300 440 C180 360, 180 180, 300 100 Z" fill="url(#g1)"/>
    <path d="M900 300 C980 220, 1140 220, 1220 300 C1300 380, 1300 520, 1220 600 C1140 680, 980 680, 900 600 C820 520, 820 380, 900 300 Z" fill="#0ea5a4" opacity="0.85"/>
    <path d="M60 540 C160 460, 360 460, 460 540 C560 620, 560 740, 460 760 C360 780, 160 780, 60 760 C-40 740, -40 620, 60 540 Z" fill="#7c3aed" opacity="0.75"/>
  </g>

  <g opacity="0.06">
    <circle cx="200" cy="200" r="420" fill="#ffffff" />
    <circle cx="1000" cy="600" r="300" fill="#ffffff" />
  </g>

  <text x="50%" y="88%" text-anchor="middle" font-family="Inter,Arial" font-size="22" fill="#ffffff" opacity="0.06">AI generated abstract background</text>
</svg>
